<?xml version="1.0" encoding="UTF-8"?>
<svg version="1.1" xmlns="http://www.w3.org/2000/svg" width="768" height="768">
<path d="M0 0 C0.33 0.99 0.66 1.98 1 3 C2.77890625 2.96519531 2.77890625 2.96519531 4.59375 2.9296875 C35.17270846 2.50020775 61.30609808 11.36116317 88 25.8125 C88.86778076 26.28075195 89.73556152 26.74900391 90.62963867 27.23144531 C91.43248291 27.67713867 92.23532715 28.12283203 93.0625 28.58203125 C93.77535156 28.97624268 94.48820313 29.3704541 95.22265625 29.77661133 C97 31 97 31 99 34 C97.85724609 35.03447266 97.85724609 35.03447266 96.69140625 36.08984375 C84.19201984 47.41336464 84.19201984 47.41336464 73 60 C69.75677904 58.45054549 66.74895039 56.63006082 63.6875 54.75 C47.03509892 45.04114555 28.73716071 40.38000951 9.5625 39.4375 C8.73556641 39.39431641 7.90863281 39.35113281 7.05664062 39.30664062 C5.03790451 39.20161967 3.01897049 39.10041441 1 39 C0.67 39.66 0.34 40.32 0 41 C0 40.34 0 39.68 0 39 C-17.30510665 41.12610148 -17.30510665 41.12610148 -34 46 C-35.66869141 46.63035156 -35.66869141 46.63035156 -37.37109375 47.2734375 C-51.55263459 52.99664573 -65.27820694 60.96832853 -76 72 C-76.66 72.66 -77.32 73.32 -78 74 C-78.66 74 -79.32 74 -80 74 C-80.495 75.485 -80.495 75.485 -81 77 C-81.66 77 -82.32 77 -83 77 C-83.28875 77.598125 -83.5775 78.19625 -83.875 78.8125 C-85 81 -85 81 -87 84 C-87.66 84 -88.32 84 -89 84 C-89.27328125 84.74121094 -89.5465625 85.48242188 -89.828125 86.24609375 C-90.92426176 88.82201514 -92.12639533 90.79730961 -93.75 93.0625 C-109.72495346 116.63529717 -114.55738712 148.08471324 -109.44970703 175.92871094 C-106.25475343 190.64423011 -100.2385254 205.90140348 -90.1875 217.23046875 C-89.795625 217.81441406 -89.40375 218.39835938 -89 219 C-90.34603482 223.03810445 -92.65336723 224.47295076 -96 227 C-96.66 227 -97.32 227 -98 227 C-98.23847656 227.556875 -98.47695313 228.11375 -98.72265625 228.6875 C-100.28886889 231.52296753 -102.23473009 233.62722978 -104.4375 236 C-107.12658885 238.90616522 -109.68561226 241.78515916 -112 245 C-114.24609375 244.8515625 -114.24609375 244.8515625 -117 244 C-128.99919915 230.13528237 -138.31302768 209.56577681 -143 192 C-143.43699219 190.50146484 -143.43699219 190.50146484 -143.8828125 188.97265625 C-154.00865016 150.77956956 -146.61807818 111.50023366 -127.5546875 77.55078125 C-122.04784364 68.16817563 -115.36269413 59.97645738 -108 52 C-107.15050781 51.05640625 -106.30101562 50.1128125 -105.42578125 49.140625 C-93.96512939 36.99549317 -79.69000208 27.77390621 -65 20 C-63.56527344 19.20529297 -63.56527344 19.20529297 -62.1015625 18.39453125 C-53.4589664 13.78909306 -44.32941997 10.86457022 -35 8 C-33.96359375 7.67902344 -32.9271875 7.35804688 -31.859375 7.02734375 C-21.37510993 3.97709704 -10.90980814 2.60645983 0 3 C0 2.01 0 1.02 0 0 Z " fill="#192834" transform="translate(383,208)"/>
<path d="M0 0 C4.35014404 1.49597714 6.09854103 4.75647875 8.375 8.5 C8.76856689 9.13220459 9.16213379 9.76440918 9.56762695 10.41577148 C10.35736548 11.68829844 11.14268575 12.96357912 11.92333984 14.24169922 C12.83697474 15.73376237 13.76995323 17.21395373 14.70703125 18.69140625 C32.7664469 47.61506139 39.72742262 86.46646732 32.16796875 119.921875 C31.13509443 123.95461139 30.08258647 127.98038733 29 132 C28.71253906 133.10859375 28.42507813 134.2171875 28.12890625 135.359375 C22.80782842 154.37335977 11.61353076 172.80469442 -2 187 C-3.17261153 188.34902212 -4.33934643 189.70317599 -5.5 191.0625 C-19.96399811 207.50475795 -37.06872781 218.27365596 -57 227 C-58.02480469 227.45375 -59.04960937 227.9075 -60.10546875 228.375 C-70.04465557 232.48954047 -80.51294956 234.7406312 -91 237 C-92.19846558 237.27130737 -92.19846558 237.27130737 -93.42114258 237.5480957 C-96.27170526 238.04761208 -98.99385149 238.17745258 -101.88671875 238.24609375 C-103.5409082 238.29540039 -103.5409082 238.29540039 -105.22851562 238.34570312 C-107.54611595 238.40720918 -109.86383291 238.464459 -112.18164062 238.51757812 C-113.28056641 238.55173828 -114.37949219 238.58589844 -115.51171875 238.62109375 C-117.01931763 238.65867798 -117.01931763 238.65867798 -118.55737305 238.69702148 C-121.17774709 238.76795501 -121.17774709 238.76795501 -123 241 C-123.33 240.34 -123.66 239.68 -124 239 C-126.03701563 238.83902004 -128.081811 238.77694315 -130.125 238.75 C-141.11101304 238.2986871 -151.51272526 235.09599238 -162 232 C-163.15701416 231.66572998 -163.15701416 231.66572998 -164.33740234 231.32470703 C-179.57276828 226.8224811 -193.9702799 219.03221062 -207 210 C-206.5676438 204.991874 -205.42011749 202.83418158 -201.75 199.4375 C-200.93273437 198.6640625 -200.11546875 197.890625 -199.2734375 197.09375 C-198.52320313 196.4028125 -197.77296875 195.711875 -197 195 C-192.75910927 190.86008286 -188.86460168 186.4882838 -185 182 C-181.62499988 182.66100233 -179.09183543 183.96962113 -176.125 185.6875 C-162.47720048 193.24350027 -145.2287352 201.16842765 -129.3125 201.125 C-128.35988281 201.12757813 -127.40726562 201.13015625 -126.42578125 201.1328125 C-123.99003502 201.16070409 -123.99003502 201.16070409 -122 200 C-122 200.66 -122 201.32 -122 202 C-99.66596326 202.86827789 -78.42355302 197.95716245 -59 187 C-58.04351562 186.47148437 -57.08703125 185.94296875 -56.1015625 185.3984375 C-47.3123139 180.34123907 -33.600059 172.200118 -29 163 C-28.34 163 -27.68 163 -27 163 C-26.76796875 162.48179687 -26.5359375 161.96359375 -26.296875 161.4296875 C-24.90406215 158.82026102 -23.26667625 156.44705791 -21.57250977 154.02587891 C-16.22473762 146.33938197 -12.29541889 138.79865969 -9 130 C-8.66097656 129.13246094 -8.32195312 128.26492188 -7.97265625 127.37109375 C-6.26724815 122.72641085 -5.89808279 118.99394309 -6 114 C-5.34 113.34 -4.68 112.68 -4 112 C0.34329778 96.28139849 -1.89043919 74.26210835 -7 59 C-7.57814453 57.14955078 -7.57814453 57.14955078 -8.16796875 55.26171875 C-11.08879762 46.46142207 -14.59683916 37.54527804 -20.9375 30.625 C-23 28 -23 28 -22.8125 25.125 C-22.544375 24.42375 -22.27625 23.7225 -22 23 C-21.01 22.67 -20.02 22.34 -19 22 C-19 21.34 -19 20.68 -19 20 C-18.34 20 -17.68 20 -17 20 C-16.79246094 19.47535156 -16.58492187 18.95070313 -16.37109375 18.41015625 C-14.41196211 14.96632657 -11.77534154 12.30517673 -9.0625 9.4375 C-8.25522461 8.5722168 -8.25522461 8.5722168 -7.43164062 7.68945312 C-4.99425493 5.08376459 -2.5319713 2.51420308 0 0 Z " fill="#182734" transform="translate(506,269)"/>
<path d="M0 0 C-0.59872137 3.94851118 -1.41036001 7.69578185 -2.55859375 11.51953125 C-2.86216797 12.54240234 -3.16574219 13.56527344 -3.47851562 14.61914062 C-3.95321289 16.19985352 -3.95321289 16.19985352 -4.4375 17.8125 C-6.35270289 24.19782592 -8.18757705 30.53868026 -9.56811523 37.06225586 C-10.16061679 39.72064188 -10.96987167 42.28615892 -11.8125 44.875 C-13.07827921 48.86598296 -14.23958565 52.8598116 -15.265625 56.91796875 C-15.48114014 57.7682666 -15.69665527 58.61856445 -15.91870117 59.49462891 C-16.34087667 61.178528 -16.75538045 62.86437313 -17.16137695 64.55224609 C-18.18800984 68.63762741 -19.04380999 71.83816199 -22 75 C-24.86282717 74.66465799 -25.8105321 74.23162117 -27.66796875 71.9609375 C-32.98692265 62.90914448 -33.20640102 56.26368867 -32 46 C-33.99983534 46.79117904 -33.99983534 46.79117904 -36 48 C-36.33 48.99 -36.66 49.98 -37 51 C-37.66 51 -38.32 51 -39 51 C-39.33 51.99 -39.66 52.98 -40 54 C-40.66 54 -41.32 54 -42 54 C-42.33 54.99 -42.66 55.98 -43 57 C-43.66 57 -44.32 57 -45 57 C-45.33 57.99 -45.66 58.98 -46 60 C-46.66 60 -47.32 60 -48 60 C-48 60.66 -48 61.32 -48 62 C-49.62957802 63.72533006 -51.28542648 65.36287218 -53 67 C-54.02145239 68.02001525 -55.03980453 69.04314206 -56.0554657 70.06892395 C-56.88182022 70.89961395 -56.88182022 70.89961395 -57.72486877 71.74708557 C-58.31154831 72.3369072 -58.89822784 72.92672882 -59.50268555 73.53442383 C-65.90809907 79.97242318 -72.31853072 86.40540146 -78.73187542 92.83549976 C-82.60815578 96.72226543 -86.48252511 100.61089898 -90.3527832 104.50366211 C-94.10187884 108.27441233 -97.85577211 112.04032312 -101.61310768 115.80286217 C-103.04505109 117.23850972 -104.47522892 118.67592048 -105.90363121 120.11509132 C-107.89300109 122.11888103 -109.88844176 124.11642389 -111.88549805 126.11254883 C-112.47825027 126.71249161 -113.0710025 127.31243439 -113.68171692 127.93055725 C-117.77189036 132 -117.77189036 132 -120 132 C-120 132.66 -120 133.32 -120 134 C-121.57421875 135.55078125 -121.57421875 135.55078125 -123.6875 137.3125 C-127.61329224 140.60247655 -131.18441729 144.14885201 -134.76977539 147.80444336 C-136.73920144 149.81025258 -138.71324907 151.81144062 -140.6875 153.8125 C-141.36361328 154.50537109 -142.03972656 155.19824219 -142.73632812 155.91210938 C-143.38408203 156.56630859 -144.03183594 157.22050781 -144.69921875 157.89453125 C-145.28533936 158.49112549 -145.87145996 159.08771973 -146.4753418 159.70239258 C-148 161 -148 161 -150 161 C-150.226875 161.556875 -150.45375 162.11375 -150.6875 162.6875 C-152.37550036 165.66159588 -154.46676517 167.72008865 -157 170 C-157.66 170 -158.32 170 -159 170 C-159.33 170.99 -159.66 171.98 -160 173 C-161.671875 174.61328125 -161.671875 174.61328125 -163.75 176.3125 C-170.3163492 181.78259972 -170.3163492 181.78259972 -173.8125 189.375 C-173.874375 190.24125 -173.93625 191.1075 -174 192 C-174.66 190.68 -175.32 189.36 -176 188 C-177.65 189.65 -179.3 191.3 -181 193 C-180.01 193.66 -179.02 194.32 -178 195 C-180.06746132 196.07201698 -182.0008901 197.00026961 -184.23510742 197.67700195 C-188.09334793 199.52316578 -190.597003 202.244918 -193.55078125 205.29296875 C-194.16841843 205.91722244 -194.7860556 206.54147614 -195.42240906 207.18464661 C-197.39302392 209.17860185 -199.35321287 211.18241823 -201.3125 213.1875 C-203.88811994 215.80975774 -206.46806412 218.42770178 -209.05078125 221.04296875 C-209.66752716 221.66839569 -210.28427307 222.29382263 -210.91970825 222.9382019 C-214.6259585 226.67672355 -218.40876562 230.25491685 -222.42993164 233.65673828 C-224.75224858 235.64358135 -226.86578236 237.81431409 -229 240 C-230.09995685 241.09146428 -231.20165015 242.18118023 -232.3046875 243.26953125 C-239.75433871 250.5775286 -239.75433871 250.5775286 -246.75 258.3125 C-249.07597141 261.06462732 -251.54755892 263.42540068 -254.265625 265.7890625 C-258.74970295 269.78838631 -263.02174984 273.95450731 -267.25 278.22265625 C-267.88029114 278.85849136 -268.51058228 279.49432648 -269.15997314 280.14942932 C-271.78008099 282.79711049 -274.39621146 285.44865566 -277.00830078 288.10424805 C-278.93874099 290.06468163 -280.87518857 292.01901615 -282.8125 293.97265625 C-283.40514648 294.57876236 -283.99779297 295.18486847 -284.60839844 295.80934143 C-286.03476458 297.2444992 -287.51287859 298.62789647 -289 300 C-289.66 300 -290.32 300 -291 300 C-291 300.66 -291 301.32 -291 302 C-292.609375 303.65625 -292.609375 303.65625 -294.75 305.5 C-295.44609375 306.1084375 -296.1421875 306.716875 -296.859375 307.34375 C-299 309 -299 309 -301.203125 310.03125 C-303.35632919 310.9273424 -303.35632919 310.9273424 -304 314 C-305.9765625 315.83984375 -305.9765625 315.83984375 -308.625 317.9375 C-309.60984375 318.72253906 -310.5946875 319.50757813 -311.609375 320.31640625 C-312.15013672 320.74324707 -312.69089844 321.17008789 -313.24804688 321.60986328 C-315.13978044 323.11091274 -317.01598556 324.63000724 -318.890625 326.15234375 C-320.21857061 327.22678425 -321.54669392 328.30100517 -322.875 329.375 C-323.50486816 329.88667725 -324.13473633 330.39835449 -324.78369141 330.92553711 C-333.5901254 338 -333.5901254 338 -339 338 C-339.36122695 334.76042496 -339.26676514 333.37523702 -337.34765625 330.67578125 C-336.59355469 329.89589844 -335.83945312 329.11601563 -335.0625 328.3125 C-334.24910156 327.45269531 -333.43570313 326.59289062 -332.59765625 325.70703125 C-331.74042969 324.81371094 -330.88320313 323.92039062 -330 323 C-328.32611801 321.17325208 -326.65909709 319.34018633 -325 317.5 C-323.88625 316.27796875 -323.88625 316.27796875 -322.75 315.03125 C-320.9565896 313.11733569 -320.9565896 313.11733569 -320 311 C-319.34 311 -318.68 311 -318 311 C-317.73662842 310.41444336 -317.47325684 309.82888672 -317.2019043 309.22558594 C-315.94677217 306.90143714 -314.59314046 305.29392262 -312.76953125 303.390625 C-312.13080078 302.71773438 -311.49207031 302.04484375 -310.83398438 301.3515625 C-310.16689453 300.65804688 -309.49980469 299.96453125 -308.8125 299.25 C-304.98333135 295.2417558 -301.1761923 291.24013278 -297.5625 287.03515625 C-293.656636 282.52851764 -289.43917745 278.36542762 -285.1875 274.1875 C-283.67867008 272.70417862 -282.17205673 271.21859824 -280.66796875 269.73046875 C-280.01078857 269.08489014 -279.3536084 268.43931152 -278.67651367 267.77416992 C-276.81294094 265.901734 -276.81294094 265.901734 -275 263 C-274.34 263 -273.68 263 -273 263 C-272.67 262.01 -272.34 261.02 -272 260 C-271.34 260 -270.68 260 -270 260 C-269.67 259.01 -269.34 258.02 -269 257 C-268.34 257 -267.68 257 -267 257 C-266.67 256.01 -266.34 255.02 -266 254 C-265.34 254 -264.68 254 -264 254 C-263.67 253.01 -263.34 252.02 -263 251 C-262.34 251 -261.68 251 -261 251 C-260.74597412 250.42131165 -260.49194824 249.84262329 -260.23022461 249.24639893 C-258.86145406 246.74701413 -257.32778141 245.07380805 -255.31640625 243.05761719 C-254.56222412 242.29713074 -253.80804199 241.53664429 -253.03100586 240.75311279 C-251.80909546 239.53727509 -251.80909546 239.53727509 -250.5625 238.296875 C-249.72662354 237.45908508 -248.89074707 236.62129517 -248.02954102 235.75811768 C-246.26336443 233.99058097 -244.49466312 232.22556398 -242.72363281 230.46289062 C-240.00353119 227.75351726 -237.29428001 225.03362235 -234.5859375 222.3125 C-232.87043283 220.59831643 -231.15430814 218.8847531 -229.4375 217.171875 C-228.62289307 216.3532196 -227.80828613 215.53456421 -226.96899414 214.69110107 C-225.83772095 213.56928436 -225.83772095 213.56928436 -224.68359375 212.42480469 C-224.01900146 211.76180359 -223.35440918 211.09880249 -222.66967773 210.41571045 C-221 209 -221 209 -219 209 C-218.67 208.01 -218.34 207.02 -218 206 C-217.34 206 -216.68 206 -216 206 C-215.79375 205.46375 -215.5875 204.9275 -215.375 204.375 C-213.72706935 201.52857433 -211.67086985 199.65530606 -209.2421875 197.46484375 C-207.67661879 195.93875825 -207.67661879 195.93875825 -208 193 C-207.29875 192.79375 -206.5975 192.5875 -205.875 192.375 C-202.59061135 190.80420543 -200.74965753 188.90859326 -198.33203125 186.2421875 C-197 185 -197 185 -195 185 C-194.67 184.01 -194.34 183.02 -194 182 C-193.34 182 -192.68 182 -192 182 C-191.67 181.01 -191.34 180.02 -191 179 C-190.34 179 -189.68 179 -189 179 C-188.773125 178.443125 -188.54625 177.88625 -188.3125 177.3125 C-186.62449964 174.33840412 -184.53323483 172.27991135 -182 170 C-181.34 170 -180.68 170 -180 170 C-179.67 169.01 -179.34 168.02 -179 167 C-178.34 167 -177.68 167 -177 167 C-176.92652344 166.04287109 -176.92652344 166.04287109 -176.8515625 165.06640625 C-176.77679688 164.24011719 -176.70203125 163.41382813 -176.625 162.5625 C-176.55539062 161.73878906 -176.48578125 160.91507813 -176.4140625 160.06640625 C-176.27742187 159.38449219 -176.14078125 158.70257813 -176 158 C-175.34 157.67 -174.68 157.34 -174 157 C-174 158.65 -174 160.3 -174 162 C-166.53893425 155.80122936 -159.80997799 148.89082001 -153 142 C-140.36409 129.21408768 -140.36409 129.21408768 -136.0859375 125.58984375 C-132.24257719 122.32046559 -128.71310207 118.77294833 -125.1640625 115.19140625 C-124.5535907 114.57542572 -123.9431189 113.95944519 -123.31414795 113.32479858 C-120.76363677 110.74648223 -118.21687746 108.16452605 -115.67431641 105.57836914 C-113.80020162 103.67424016 -111.92006678 101.77622603 -110.0390625 99.87890625 C-109.46201569 99.28839981 -108.88496887 98.69789337 -108.29043579 98.0894928 C-106.89778729 96.68804268 -105.45334043 95.33840722 -104 94 C-103.34 94 -102.68 94 -102 94 C-101.74597412 93.42131165 -101.49194824 92.84262329 -101.23022461 92.24639893 C-99.86145406 89.74701413 -98.32778141 88.07380805 -96.31640625 86.05761719 C-95.56222412 85.29713074 -94.80804199 84.53664429 -94.03100586 83.75311279 C-92.80909546 82.53727509 -92.80909546 82.53727509 -91.5625 81.296875 C-90.72662354 80.45908508 -89.89074707 79.62129517 -89.02954102 78.75811768 C-87.26336443 76.99058097 -85.49466312 75.22556398 -83.72363281 73.46289062 C-81.00353119 70.75351726 -78.29428001 68.03362235 -75.5859375 65.3125 C-73.87043283 63.59831643 -72.15430814 61.8847531 -70.4375 60.171875 C-69.62289307 59.3532196 -68.80828613 58.53456421 -67.96899414 57.69110107 C-67.21481201 56.94322327 -66.46062988 56.19534546 -65.68359375 55.42480469 C-65.01900146 54.76180359 -64.35440918 54.09880249 -63.66967773 53.41571045 C-62 52 -62 52 -60 52 C-60 51.34 -60 50.68 -60 50 C-58.34614767 48.65080468 -56.678298 47.31866272 -55 46 C-54.34 45.01 -53.68 44.02 -53 43 C-52.34 43 -51.68 43 -51 43 C-51 42.34 -51 41.68 -51 41 C-49.3603279 39.63360658 -47.68889872 38.3050581 -46 37 C-44.65462284 35.67882028 -43.3191652 34.34735249 -42 33 C-43.01320313 33.11859375 -44.02640625 33.2371875 -45.0703125 33.359375 C-46.42176056 33.49076578 -47.77333042 33.62090796 -49.125 33.75 C-49.79015625 33.83121094 -50.4553125 33.91242188 -51.140625 33.99609375 C-56.42644622 34.46248974 -58.92331711 33.26134631 -63 30 C-63.84304688 29.36578125 -64.68609375 28.7315625 -65.5546875 28.078125 C-66.32039063 27.47484375 -67.08609375 26.8715625 -67.875 26.25 C-68.65617187 25.63640625 -69.43734375 25.0228125 -70.2421875 24.390625 C-70.82226562 23.93171875 -71.40234375 23.4728125 -72 23 C-71.77709961 21.10473633 -71.77709961 21.10473633 -71 19 C-69.09594727 18.0144043 -69.09594727 18.0144043 -66.56640625 17.32421875 C-65.14726929 16.92384399 -65.14726929 16.92384399 -63.69946289 16.51538086 C-62.66426514 16.24218018 -61.62906738 15.96897949 -60.5625 15.6875 C-58.96039673 15.24192749 -58.96039673 15.24192749 -57.32592773 14.78735352 C-51.63553535 13.21443653 -45.92581216 11.71420693 -40.21875 10.203125 C-39.11474854 9.91026611 -38.01074707 9.61740723 -36.87329102 9.31567383 C-34.67391568 8.73229848 -32.47388498 8.15138809 -30.27319336 7.57299805 C-23.0563589 5.64642608 -16.02158916 3.43428959 -9.07250977 0.68920898 C-5.70381057 -0.60368103 -3.42924826 -1.44752188 0 0 Z " fill="#152134" transform="translate(558,190)"/>
<path d="M0 0 C3.39890142 2.06889652 5.88937011 4.11279537 7 8 C6.8090701 13.25057234 5.84409548 16.36369347 2 20 C-0.875 21.5 -0.875 21.5 -4 22 C-7.53231908 20.68403799 -10.90040067 19.20465161 -13 16 C-14.03247787 11.07587479 -14.68653389 7.47755648 -12 3 C-8.72011172 -0.65833692 -4.63870907 -0.83920979 0 0 Z " fill="#313D47" transform="translate(469,353)"/>
<path d="M0 0 C0.66 0.33 1.32 0.66 2 1 C1.34 2.32 0.68 3.64 0 5 C-0.66 5 -1.32 5 -2 5 C-1.67 5.33 -1.34 5.66 -1 6 C0.32 6 1.64 6 3 6 C3 6.99 3 7.98 3 9 C4.65 8.34 6.3 7.68 8 7 C6.77256678 10.68229965 5.39800742 11.54317111 2.375 13.9375 C0.89773437 15.11505859 0.89773437 15.11505859 -0.609375 16.31640625 C-1.15013672 16.74324707 -1.69089844 17.17008789 -2.24804688 17.60986328 C-4.13978044 19.11091274 -6.01598556 20.63000724 -7.890625 22.15234375 C-9.21857061 23.22678425 -10.54669392 24.30100517 -11.875 25.375 C-12.81980225 26.14251587 -12.81980225 26.14251587 -13.78369141 26.92553711 C-22.5901254 34 -22.5901254 34 -28 34 C-28.33503699 30.83948436 -28.25916846 29.38351696 -26.453125 26.7109375 C-21.60153644 21.56687728 -16.59238917 16.70643394 -11.33007812 11.99047852 C-7.20131052 8.26697642 -3.50621731 4.30869663 0 0 Z " fill="#07192C" transform="translate(247,494)"/>
<path d="M0 0 C4.3984254 1.13752381 6.01707726 2.2231858 8.625 5.9375 C9.4743744 9.94169361 8.99002285 13.05376047 7.4375 16.8125 C5.27119398 19.35230706 3.86523148 20.16601631 0.625 20.9375 C-2.92837778 20.84866556 -4.28642199 20.00594664 -7.125 17.8125 C-9.86735956 14.3083739 -10.45288929 12.37718974 -10.375 7.9375 C-7.83608418 3.13169506 -5.76465967 -0.10675296 0 0 Z " fill="#292F38" transform="translate(311.375,353.0625)"/>
<path d="M0 0 C0.33 0.99 0.66 1.98 1 3 C2.77890625 2.96519531 2.77890625 2.96519531 4.59375 2.9296875 C35.17270846 2.50020775 61.30609808 11.36116317 88 25.8125 C88.86778076 26.28075195 89.73556152 26.74900391 90.62963867 27.23144531 C91.43248291 27.67713867 92.23532715 28.12283203 93.0625 28.58203125 C93.77535156 28.97624268 94.48820312 29.3704541 95.22265625 29.77661133 C97 31 97 31 99 34 C98.23816406 34.68964844 97.47632813 35.37929687 96.69140625 36.08984375 C90.29345749 41.90426963 84.05898034 47.82973227 78 54 C76.98036412 55.02202939 75.95976007 56.0430954 74.9375 57.0625 C74.298125 57.701875 73.65875 58.34125 73 59 C76.36777587 51.68711525 82.72680956 46.16766074 88.3125 40.5 C88.84020996 39.95923828 89.36791992 39.41847656 89.91162109 38.86132812 C91.23561736 37.53434316 92.61391374 36.26199053 94 35 C94.66 35 95.32 35 96 35 C96 34.01 96 33.02 96 32 C95.31035156 31.73703125 94.62070312 31.4740625 93.91015625 31.203125 C90.66740651 29.86249826 87.5695976 28.33208343 84.4375 26.75 C83.81601074 26.4398999 83.19452148 26.1297998 82.55419922 25.81030273 C79.76138399 24.41389512 76.99578326 22.99767207 74.26171875 21.48828125 C46.11863569 6.27016967 15.26464609 4.18434598 -16 5 C-16 4.67 -16 4.34 -16 4 C-12.32612505 3.14701624 -8.9552607 2.89210529 -5.1875 2.9375 C-4.21167969 2.94652344 -3.23585938 2.95554688 -2.23046875 2.96484375 C-1.49441406 2.97644531 -0.75835937 2.98804688 0 3 C0 2.01 0 1.02 0 0 Z " fill="#A6AEB4" transform="translate(383,208)"/>
<path d="M0 0 C0.33 0.99 0.66 1.98 1 3 C2.5778125 2.87625 2.5778125 2.87625 4.1875 2.75 C8 3 8 3 10.9375 4.5625 C13 7 13 7 13.5625 10.4375 C12.89437748 14.66894262 12.30471604 16.25950377 9 19 C6.00069326 19.69691293 3.07356809 19.92775801 0 20 C-3.36372676 12.19615392 -2.86763754 8.02938511 0 0 Z " fill="#3E4E51" transform="translate(383,287)"/>
<path d="M0 0 C-3.52475582 2.34983721 -7.12457403 3.38043236 -11.125 4.625 C-29.71377477 10.64927894 -45.80288328 19.75072325 -61 32 C-62.10408203 32.82757813 -62.10408203 32.82757813 -63.23046875 33.671875 C-80.85937425 46.90113972 -93.6957388 65.18371293 -103 85 C-104 82 -104 82 -102.84765625 79.28515625 C-95.7553343 66.48173042 -87.79687117 54.87892392 -78 44 C-77.16984375 43.07316406 -76.3396875 42.14632812 -75.484375 41.19140625 C-63.98302132 29.03736839 -49.72266352 19.79119055 -35 12 C-33.56527344 11.20529297 -33.56527344 11.20529297 -32.1015625 10.39453125 C-26.1098353 7.20167936 -19.9781568 4.80178673 -13.5625 2.625 C-12.79260742 2.36187012 -12.02271484 2.09874023 -11.22949219 1.82763672 C-7.37923172 0.57152937 -4.10488348 -0.34275369 0 0 Z " fill="#AAB4B4" transform="translate(353,216)"/>
<path d="M0 0 C1.28472765 3.85418295 0.42519168 4.8127318 -1.25 8.4375 C-12.40567383 34.17898559 -11.80388199 64.90465835 -1.85742188 90.86767578 C1.59064195 99.44267277 5.63359079 107.26587927 11.8125 114.23046875 C12.204375 114.81441406 12.59625 115.39835937 13 116 C11.61918777 120.1424367 9.40174442 121.32203099 6 124 C5.34 123.67 4.68 123.34 4 123 C5.62339805 121.29115995 7.29319053 119.62553283 9 118 C9.66 118 10.32 118 11 118 C10.34773438 117.09121094 9.69546875 116.18242187 9.0234375 115.24609375 C2.9059636 106.52491613 -1.50662807 98.04926658 -5 88 C-5.45632813 86.71802734 -5.45632813 86.71802734 -5.921875 85.41015625 C-6.40026395 84.02136384 -6.8608289 82.62615152 -7.29418945 81.22265625 C-7.74999788 79.78727752 -8.24028953 78.36219445 -8.77124023 76.95288086 C-11.5020802 69.19052118 -11.46673534 61.49722305 -11.375 53.375 C-11.37101196 52.66378998 -11.36702393 51.95257996 -11.36291504 51.21981812 C-11.29467054 40.8683814 -10.81304664 31.01923422 -8 21 C-7.53013672 19.24236328 -7.53013672 19.24236328 -7.05078125 17.44921875 C-5.2766416 11.25726099 -3.09867786 5.64402038 0 0 Z " fill="#ABB7C0" transform="translate(281,311)"/>
<path d="M0 0 C-0.59872137 3.94851118 -1.41036001 7.69578185 -2.55859375 11.51953125 C-3.01395508 13.05383789 -3.01395508 13.05383789 -3.47851562 14.61914062 C-3.95321289 16.19985352 -3.95321289 16.19985352 -4.4375 17.8125 C-6.35679083 24.21145519 -8.19527132 30.56586033 -9.57739258 37.10375977 C-10.10735037 39.4816813 -10.82215803 41.76345254 -11.625 44.0625 C-11.88539063 44.81660156 -12.14578125 45.57070312 -12.4140625 46.34765625 C-12.60742188 46.89292969 -12.80078125 47.43820313 -13 48 C-13.33 48 -13.66 48 -14 48 C-14.23753598 43.25647851 -13.44956239 39.67506779 -11.9375 35.1875 C-9.47228329 27.68283435 -7.30135953 20.11064908 -5.1875 12.5 C-4.71654907 10.80653442 -4.71654907 10.80653442 -4.23608398 9.07885742 C-3.48875518 6.38644329 -2.74329807 3.6935292 -2 1 C-3.57587891 1.61488281 -3.57587891 1.61488281 -5.18359375 2.2421875 C-6.60143554 2.78678898 -8.01941159 3.33104102 -9.4375 3.875 C-10.46907227 4.27912109 -10.46907227 4.27912109 -11.52148438 4.69140625 C-15.90287203 6.36244712 -20.21116479 7.57635549 -24.80053711 8.53027344 C-28.26233963 9.26959057 -31.65658934 10.22707303 -35.0625 11.1875 C-35.8054834 11.39528076 -36.5484668 11.60306152 -37.31396484 11.81713867 C-47.90010636 14.79361633 -58.44925997 17.90087124 -69 21 C-68.01 22.65 -67.02 24.3 -66 26 C-68.4375 25.25 -68.4375 25.25 -71 24 C-71.8125 21.875 -71.8125 21.875 -72 20 C-67.36735229 17.9260112 -62.8534097 16.27273899 -57.94921875 14.9140625 C-57.29711426 14.73198746 -56.64500977 14.54991241 -55.97314453 14.36231995 C-53.87913572 13.77876896 -51.78334127 13.20193076 -49.6875 12.625 C-48.23985365 12.22225169 -46.79234439 11.81901029 -45.3449707 11.4152832 C-39.32861628 9.73943228 -33.30774775 8.0804445 -27.28125 6.44140625 C-25.74992781 6.02370208 -24.21867106 5.60575783 -22.6875 5.1875 C-21.99213135 4.99865234 -21.2967627 4.80980469 -20.58032227 4.61523438 C-15.64433144 3.24888696 -10.89161131 1.56762248 -6.1640625 -0.3984375 C-3.7018383 -1.08288249 -2.38271269 -0.83775743 0 0 Z " fill="#A7B0B6" transform="translate(558,190)"/>
<path d="M0 0 C2 1 2 1 2.82202148 2.84741211 C14.39071124 38.02711548 16.52508103 74.82450408 3 110 C1.37890625 112.359375 1.37890625 112.359375 0 114 C1.03939702 108.88963131 2.29753569 104.01380986 3.9375 99.0625 C12.88354785 69.64441008 12.36333387 34.28018206 0.953125 5.6171875 C0 3 0 3 0 0 Z " fill="#909CA2" transform="translate(528,304)"/>
<path d="M0 0 C2.875 1.5 2.875 1.5 5 4 C5.71748379 6.82364588 5.71603622 9.17627652 5 12 C2.875 14.5625 2.875 14.5625 0 16 C-3.95743993 16.08076408 -5.45889393 15.49838717 -8.375 12.8125 C-10.30281734 9.47589307 -10.64524143 7.79079343 -10 4 C-7.20900702 -0.07914358 -4.82277608 -0.78739201 0 0 Z " fill="#383F46" transform="translate(574,357)"/>
<path d="M0 0 C0.99 0.495 0.99 0.495 2 1 C1.360625 1.226875 0.72125 1.45375 0.0625 1.6875 C-2.27432836 2.84016601 -2.27432836 2.84016601 -2.625 5.5625 C-2.810625 6.7690625 -2.810625 6.7690625 -3 8 C-5 9 -5 9 -7.69140625 9.328125 C-11.57812975 10.11740061 -14.55596434 11.78173717 -17.9375 13.75 C-25.39668255 17.88475064 -32.74459663 20.7344839 -41 23 C-42.13695312 23.3196875 -43.27390625 23.639375 -44.4453125 23.96875 C-63.00676818 28.29842001 -84.96253639 28.45430008 -103 22 C-103 21.67 -103 21.34 -103 21 C-95.50948063 21.88870569 -95.50948063 21.88870569 -92.5859375 22.52734375 C-89.77853836 23.04047864 -87.16469897 23.13278226 -84.3125 23.125 C-83.35988281 23.12757813 -82.40726562 23.13015625 -81.42578125 23.1328125 C-78.99003502 23.16070409 -78.99003502 23.16070409 -77 22 C-77 22.66 -77 23.32 -77 24 C-54.6996282 24.8669691 -33.38085267 19.99146853 -14 9 C-12.98550781 8.42507813 -11.97101563 7.85015625 -10.92578125 7.2578125 C-7.1152376 5.02155185 -3.5055577 2.69233148 0 0 Z " fill="#A4AEAE" transform="translate(461,447)"/>
<path d="M0 0 C1.98 0 3.96 0 6 0 C5.67 0.99 5.34 1.98 5 3 C4.34 3 3.68 3 3 3 C2.67 3.99 2.34 4.98 2 6 C1.34 6 0.68 6 0 6 C0 6.66 0 7.32 0 8 C-1.6291436 9.72650595 -3.28401784 11.36364319 -5 13 C-6.02564274 14.02029958 -7.04849251 15.0434124 -8.06892395 16.06892395 C-28.71261597 36.71261597 -49.35630798 57.35630798 -70 78 C-70.66 77.67 -71.32 77.34 -72 77 C-71.16506012 76.17394257 -70.33012024 75.34788513 -69.46987915 74.49679565 C-61.60160603 66.70961909 -53.7439236 58.91189449 -45.89647865 51.10372734 C-41.86171251 47.08983314 -37.82331136 43.07974356 -33.77636719 39.078125 C-29.8707761 35.21600402 -25.97504556 31.34418562 -22.08594894 27.46545792 C-20.60068919 25.9875873 -19.11191389 24.51324113 -17.61958694 23.04250717 C-15.52944673 20.98141473 -13.45217359 18.90812877 -11.37744141 16.83154297 C-10.75813248 16.22661514 -10.13882355 15.62168732 -9.50074768 14.99842834 C-6.06360414 11.52792249 -4.19701891 8.86450218 -3 4 C-2.67 3.34 -2.34 2.68 -2 2 C-1.34 2 -0.68 2 0 2 C0 1.34 0 0.68 0 0 Z " fill="#ABB8C5" transform="translate(510,244)"/>
<path d="M0 0 C3.0625 0.5625 3.0625 0.5625 5.5 2.6875 C7.0625 5.5625 7.0625 5.5625 7 8.6875 C5.59727444 12.98919173 5.59727444 12.98919173 3.0625 14.5625 C0.125 15.0625 0.125 15.0625 -2.9375 14.5625 C-5.375 12.375 -5.375 12.375 -6.9375 9.5625 C-6.86514395 6.59590194 -6.09743897 4.8739601 -4.75 2.25 C-2.9375 0.5625 -2.9375 0.5625 0 0 Z " fill="#4F5559" transform="translate(205.9375,357.4375)"/>
<path d="M0 0 C0.66 0 1.32 0 2 0 C0.63854692 3.13608345 -0.79511789 4.9145345 -3.4375 7.0625 C-10.68804719 13.20367385 -17.4040565 19.95898206 -23.4543457 27.28369141 C-25.08354536 29.09276952 -26.80676307 30.62223117 -28.6640625 32.1953125 C-33.04062241 35.98130889 -37.12252163 40.00945252 -41.1875 44.125 C-41.87263672 44.81464844 -42.55777344 45.50429688 -43.26367188 46.21484375 C-44.59042366 47.55053419 -45.91622902 48.88716556 -47.2409668 50.22485352 C-49.48639849 52.49085405 -51.74243109 54.74609597 -54 57 C-55.03784448 58.03767635 -56.0755997 59.07544197 -57.11328125 60.11328125 C-60.07552083 63.07552083 -63.03776042 66.03776042 -66 69 C-66 66 -66 66 -64.53286743 64.15864563 C-63.84606903 63.47247665 -63.15927063 62.78630768 -62.45166016 62.0793457 C-61.67730621 61.29876297 -60.90295227 60.51818024 -60.10513306 59.71394348 C-59.25832977 58.87634995 -58.41152649 58.03875641 -57.5390625 57.17578125 C-56.6781601 56.31438034 -55.81725769 55.45297943 -54.93026733 54.56547546 C-53.1061908 52.74374255 -51.2784127 50.92570968 -49.44726562 49.11108398 C-46.63497858 46.32239485 -43.83624618 43.52062645 -41.0390625 40.71679688 C-39.26902041 38.9523309 -37.49821266 37.18863261 -35.7265625 35.42578125 C-34.46243027 34.16028191 -34.46243027 34.16028191 -33.17276001 32.86921692 C-32.39210175 32.09809067 -31.61144348 31.32696442 -30.80712891 30.5324707 C-30.11873932 29.84868851 -29.43034973 29.16490631 -28.72109985 28.46040344 C-27 27 -27 27 -25 27 C-24.505 25.515 -24.505 25.515 -24 24 C-23.34 24 -22.68 24 -22 24 C-21.79375 23.46375 -21.5875 22.9275 -21.375 22.375 C-19.72706935 19.52857433 -17.67086985 17.65530606 -15.2421875 15.46484375 C-13.67661879 13.93875825 -13.67661879 13.93875825 -14 11 C-13.29875 10.79375 -12.5975 10.5875 -11.875 10.375 C-8.59061135 8.80420543 -6.74965753 6.90859326 -4.33203125 4.2421875 C-3 3 -3 3 -1 3 C-0.67 2.01 -0.34 1.02 0 0 Z " fill="#AEB7BE" transform="translate(364,372)"/>
<path d="M0 0 C2 1 2 1 2.67016602 2.79077148 C2.86280029 3.55977783 3.05543457 4.32878418 3.25390625 5.12109375 C3.57584961 6.40209961 3.57584961 6.40209961 3.90429688 7.70898438 C4.12150391 8.60939453 4.33871094 9.50980469 4.5625 10.4375 C4.78357422 11.30310547 5.00464844 12.16871094 5.23242188 13.06054688 C11.13146298 36.99532695 8.82500243 62.4490195 -1 85 C-1.99 85.495 -1.99 85.495 -3 86 C-2.3389147 82.20049924 -1.25006277 78.74748506 0.0625 75.125 C1.6770999 70.4258777 2.21333531 66.90671216 2 62 C2.66 61.34 3.32 60.68 4 60 C5.76105328 53.62666432 5.28657249 46.8109029 5.3125 40.25 C5.31611542 39.55358398 5.31973083 38.85716797 5.32345581 38.13964844 C5.34359398 28.50888251 4.71627947 19.59558358 1.97265625 10.3125 C0.96450923 6.87913185 0.42991975 3.54796927 0 0 Z " fill="#949BA3" transform="translate(498,321)"/>
<path d="M0 0 C0 3 0 3 -1.57421875 4.61328125 C-2.27160156 5.17402344 -2.96898437 5.73476563 -3.6875 6.3125 C-10.30365552 11.76095551 -10.30365552 11.76095551 -13.8125 19.375 C-13.9053125 20.674375 -13.9053125 20.674375 -14 22 C-14.66 20.68 -15.32 19.36 -16 18 C-18.475 20.475 -18.475 20.475 -21 23 C-20.01 23.66 -19.02 24.32 -18 25 C-20.06258308 26.06948752 -21.98561109 26.99570693 -24.2175293 27.66162109 C-28.17622637 29.56576932 -30.78775222 32.41732315 -33.83203125 35.5390625 C-34.46864182 36.17991791 -35.10525238 36.82077332 -35.76115417 37.48104858 C-37.78544107 39.52207848 -39.7990254 41.57330856 -41.8125 43.625 C-43.18615509 45.01370752 -44.56049659 46.40173644 -45.93554688 47.7890625 C-49.29836927 51.18489613 -52.6516336 54.58991402 -56 58 C-56.66 57.67 -57.32 57.34 -58 57 C-50.88364807 49.86049001 -43.76460672 42.72367392 -36.64210796 35.59029579 C-33.33502583 32.27799244 -30.02888148 28.96476418 -26.72485352 25.64941406 C-23.53697068 22.45067541 -20.34665978 19.2543772 -17.15464211 16.05976486 C-15.93653161 14.83980499 -14.71930241 13.6189645 -13.50296593 12.39723587 C-11.80076174 10.68778557 -10.09546678 8.98147736 -8.3894043 7.27587891 C-7.88589951 6.76877884 -7.38239471 6.26167877 -6.8636322 5.73921204 C-4.66045897 3.54252543 -2.60162694 1.73441796 0 0 Z " fill="#A1ABB9" transform="translate(398,360)"/>
<path d="M0 0 C0.99 0.495 0.99 0.495 2 1 C-12.97081718 8.8495636 -27.54971436 13.45588983 -44 17 C-44.79897705 17.18087158 -45.5979541 17.36174316 -46.42114258 17.5480957 C-49.27170526 18.04761208 -51.99385149 18.17745258 -54.88671875 18.24609375 C-56.5409082 18.29540039 -56.5409082 18.29540039 -58.22851562 18.34570312 C-60.54611595 18.40720918 -62.86383291 18.464459 -65.18164062 18.51757812 C-66.28056641 18.55173828 -67.37949219 18.58589844 -68.51171875 18.62109375 C-70.01931763 18.65867798 -70.01931763 18.65867798 -71.55737305 18.69702148 C-74.17774709 18.76795501 -74.17774709 18.76795501 -76 21 C-76.33 20.34 -76.66 19.68 -77 19 C-78.89533342 18.53476937 -78.89533342 18.53476937 -81.0625 18.375 C-82.361875 18.25125 -83.66125 18.1275 -85 18 C-85 17.67 -85 17.34 -85 17 C-84.13536133 16.9906543 -83.27072266 16.98130859 -82.37988281 16.97167969 C-65.5593437 16.74383175 -49.35186213 16.36513124 -33 12 C-32.2682959 11.81421387 -31.5365918 11.62842773 -30.78271484 11.43701172 C-21.80365595 9.1361651 -13.38021749 6.11866523 -4.99902344 2.1472168 C-3.35630797 1.37880225 -1.68031181 0.68229559 0 0 Z " fill="#939EA5" transform="translate(459,489)"/>
<path d="M0 0 C0.66 0.33 1.32 0.66 2 1 C-1.00376952 4.67961767 -3.94400519 8.05572481 -7.58203125 11.11328125 C-12.70085405 15.53526085 -17.42975598 20.32113319 -22.1875 25.125 C-23.06341797 26.00542969 -23.93933594 26.88585937 -24.84179688 27.79296875 C-28.14979948 31.1185271 -31.45433996 34.44736419 -34.75 37.78515625 C-37.3741017 40.36825636 -40.08057126 42.84388969 -42.8125 45.3125 C-43.78832031 46.19550781 -44.76414062 47.07851563 -45.76953125 47.98828125 C-46.50558594 48.65214844 -47.24164063 49.31601562 -48 50 C-48 47 -48 47 -46.7578125 45.39453125 C-46.21898437 44.87246094 -45.68015625 44.35039062 -45.125 43.8125 C-44.59132813 43.28269531 -44.05765625 42.75289063 -43.5078125 42.20703125 C-42 41 -42 41 -40 41 C-39.67 40.01 -39.34 39.02 -39 38 C-38.34 38 -37.68 38 -37 38 C-36.95101563 37.36191406 -36.90203125 36.72382813 -36.8515625 36.06640625 C-36.77679688 35.24011719 -36.70203125 34.41382813 -36.625 33.5625 C-36.52058594 32.32693359 -36.52058594 32.32693359 -36.4140625 31.06640625 C-36.20910156 30.04353516 -36.20910156 30.04353516 -36 29 C-35.34 28.67 -34.68 28.34 -34 28 C-34 29.65 -34 31.3 -34 33 C-26.37000348 26.66552548 -19.4785982 19.5915987 -12.5 12.5625 C-11.28408886 11.3415631 -10.06794484 10.12085808 -8.8515625 8.90039062 C-5.89835034 5.93625987 -2.94830602 2.96901042 0 0 Z " fill="#B4BCC6" transform="translate(418,319)"/>
<path d="M0 0 C0 0.99 0 1.98 0 3 C-2.16015625 5.05078125 -2.16015625 5.05078125 -5.0625 7.3125 C-6.06023437 8.10140625 -7.05796875 8.8903125 -8.0859375 9.703125 C-9.04757813 10.46109375 -10.00921875 11.2190625 -11 12 C-13.35458527 13.9768873 -15.67661728 15.98640164 -18 18 C-18.66 17.67 -19.32 17.34 -20 17 C-19.01 15.515 -19.01 15.515 -18 14 C-18.32380126 12.66431979 -18.65657551 11.33076989 -19 10 C-16.50494038 7.50494038 -15.32671112 7.64051624 -11.875 7.375 C-10.96492187 7.30023438 -10.05484375 7.22546875 -9.1171875 7.1484375 C-8.06917969 7.07496094 -8.06917969 7.07496094 -7 7 C-7 6.34 -7 5.68 -7 5 C-7.99 4.67 -8.98 4.34 -10 4 C-9.34 3.01 -8.68 2.02 -8 1 C-5 0.875 -5 0.875 -2 1 C-1.34 0.67 -0.68 0.34 0 0 Z " fill="#3F526B" transform="translate(254,501)"/>
<path d="M0 0 C7.49051937 0.88870569 7.49051937 0.88870569 10.4140625 1.52734375 C13.22146164 2.04047864 15.83530103 2.13278226 18.6875 2.125 C19.64011719 2.12757813 20.59273438 2.13015625 21.57421875 2.1328125 C24.00996498 2.16070409 24.00996498 2.16070409 26 1 C26 1.66 26 2.32 26 3 C35.69527822 3.19219715 45.32867432 2.59581324 55 2 C48.32874079 6.44750614 39.36834804 5.27079265 31.625 5.3125 C30.95547302 5.31644775 30.28594604 5.32039551 29.59613037 5.32446289 C19.21125429 5.3531306 9.82638558 4.51615075 0 1 C0 0.67 0 0.34 0 0 Z " fill="#A2AAAD" transform="translate(358,468)"/>
<path d="M0 0 C2.21948263 1.03047408 3.91273771 1.91596964 5.6875 3.625 C11.75424539 7.23225401 21.2880785 4.70255627 28 4 C26.6489735 7.01015294 25.13664313 9.11967466 22.8125 11.453125 C22.19632813 12.071875 21.58015625 12.690625 20.9453125 13.328125 C20.30335938 13.96234375 19.66140625 14.5965625 19 15.25 C18.35804688 15.8996875 17.71609375 16.549375 17.0546875 17.21875 C16.43851562 17.83234375 15.82234375 18.4459375 15.1875 19.078125 C14.62417969 19.63918945 14.06085938 20.20025391 13.48046875 20.77832031 C12 22 12 22 10 22 C9.67 22.99 9.34 23.98 9 25 C8.01 25.33 7.02 25.66 6 26 C6 25.34 6 24.68 6 24 C7.65385233 22.65080468 9.321702 21.31866272 11 20 C11.66 19.01 12.32 18.02 13 17 C13.66 17 14.32 17 15 17 C15 16.34 15 15.68 15 15 C16.6396721 13.63360658 18.31110128 12.3050581 20 11 C21.34537716 9.67882028 22.6808348 8.34735249 24 7 C22.98679687 7.11859375 21.97359375 7.2371875 20.9296875 7.359375 C19.57823944 7.49076578 18.22666958 7.62090796 16.875 7.75 C16.20984375 7.83121094 15.5446875 7.91242188 14.859375 7.99609375 C9.62414338 8.45802595 7.01067788 7.29448541 3 4 C1.125 1.75 1.125 1.75 0 0 Z " fill="#ADB6B9" transform="translate(492,216)"/>
<path d="M0 0 C0.66 0.33 1.32 0.66 2 1 C-11.66666667 14.66666667 -25.33333333 28.33333333 -39 42 C-39 39 -39 39 -37.51940918 37.15864563 C-36.82657837 36.47247665 -36.13374756 35.78630768 -35.41992188 35.0793457 C-34.63911255 34.29876297 -33.85830322 33.51818024 -33.05383301 32.71394348 C-32.20075562 31.87634995 -31.34767822 31.03875641 -30.46875 30.17578125 C-29.60310425 29.31438034 -28.7374585 28.45297943 -27.84558105 27.56547546 C-25.07065947 24.80738835 -22.28550377 22.05989543 -19.5 19.3125 C-17.62041202 17.4479526 -15.74149674 15.58272681 -13.86328125 13.71679688 C-9.2499735 9.13662174 -4.62821377 4.56510957 0 0 Z " fill="#B0B9C1" transform="translate(496,242)"/>
<path d="M0 0 C0 0.99 0 1.98 0 3 C-1.66666667 4.66666667 -3.33333333 6.33333333 -5 8 C-5 8.99 -5 9.98 -5 11 C-1.65626525 10.44271087 1.03312999 9.64826111 4 8 C0.61240871 11.58686137 -2.71013148 14.53560745 -7 17 C-8.32 17 -9.64 17 -11 17 C-11.43641407 13.52739087 -11.20031136 12.27491292 -9.1015625 9.39453125 C-8.28429687 8.54246094 -7.46703125 7.69039062 -6.625 6.8125 C-5.81289062 5.95269531 -5.00078125 5.09289062 -4.1640625 4.20703125 C-2.78264368 2.79818354 -1.39520067 1.39520067 0 0 Z " fill="#6E7E81" transform="translate(230,511)"/>
<path d="M0 0 C0.33 0.99 0.66 1.98 1 3 C2.5778125 2.87625 2.5778125 2.87625 4.1875 2.75 C8.58864097 3.03859941 10.08772497 3.73472194 13 7 C13.3125 9.75 13.3125 9.75 13 12 C12.7525 11.401875 12.505 10.80375 12.25 10.1875 C10.78034996 7.61561243 9.56909841 6.46805623 7 5 C4.41537838 4.58282721 4.41537838 4.58282721 2 5 C-0.32528287 7.32528287 -0.29511025 7.84665898 -0.3125 11 C-0.32925781 11.70125 -0.34601563 12.4025 -0.36328125 13.125 C-0.24339844 13.74375 -0.12351562 14.3625 0 15 C2.81708195 17.31537595 2.81708195 17.31537595 6 16.8125 C9.00775285 15.99790027 10.11821903 15.4044979 12 13 C11.42655063 15.86724686 11.1385485 16.8614515 9 19 C6.8359375 19.4140625 6.8359375 19.4140625 4.375 19.625 C3.55773437 19.69976562 2.74046875 19.77453125 1.8984375 19.8515625 C1.27195312 19.90054687 0.64546875 19.94953125 0 20 C-3.36372676 12.19615392 -2.86763754 8.02938511 0 0 Z " fill="#AFB9B8" transform="translate(383,287)"/>
<path d="M0 0 C5.04229883 1.2898904 7.45495223 3.26169579 11 7 C10.23816406 7.68964844 9.47632813 8.37929687 8.69140625 9.08984375 C2.29345749 14.90426963 -3.94101966 20.82973227 -10 27 C-11.01963588 28.02202939 -12.04023993 29.0430954 -13.0625 30.0625 C-13.701875 30.701875 -14.34125 31.34125 -15 32 C-11.63222413 24.68711525 -5.27319044 19.16766074 0.3125 13.5 C0.84020996 12.95923828 1.36791992 12.41847656 1.91162109 11.86132812 C3.23561736 10.53434316 4.61391374 9.26199053 6 8 C6.66 8 7.32 8 8 8 C8 7.01 8 6.02 8 5 C7.236875 4.731875 6.47375 4.46375 5.6875 4.1875 C3.12619116 3.05575888 1.80307062 2.08776599 0 0 Z " fill="#A4ADB3" transform="translate(471,235)"/>
<path d="M0 0 C0.66 0 1.32 0 2 0 C0.63421085 3.06556857 -0.91158026 5.14958638 -3.30078125 7.49609375 C-3.94853516 8.13740234 -4.59628906 8.77871094 -5.26367188 9.43945312 C-5.93978516 10.09880859 -6.61589844 10.75816406 -7.3125 11.4375 C-8.30926758 12.42073242 -8.30926758 12.42073242 -9.32617188 13.42382812 C-10.62497424 14.7046451 -11.92562495 15.98359095 -13.22827148 17.26049805 C-15.50087321 19.49176266 -17.75187767 21.7440987 -20 24 C-22.33333333 26.33333333 -24.66666667 28.66666667 -27 31 C-27 28 -27 28 -25.01220703 25.6875 C-24.10325684 24.800625 -23.19430664 23.91375 -22.2578125 23 C-21.77424286 22.52304687 -21.29067322 22.04609375 -20.79244995 21.5546875 C-19.24355023 20.02921767 -17.68487596 18.51423746 -16.125 17 C-14.57400253 15.48411038 -13.02517012 13.96609852 -11.47897339 12.4453125 C-10.07237169 11.06342488 -8.6596193 9.6878063 -7.24658203 8.3125 C-4.87933687 6.01608453 -4.87933687 6.01608453 -3 3 C-2.34 3 -1.68 3 -1 3 C-0.67 2.01 -0.34 1.02 0 0 Z " fill="#969DA5" transform="translate(286,450)"/>
<path d="M0 0 C0.33 0 0.66 0 1 0 C1.35557635 10.66729054 -0.50700243 20.14381763 -4 30.1875 C-4.26119629 30.94289063 -4.52239258 31.69828125 -4.79150391 32.4765625 C-6.74582407 37.87291204 -6.74582407 37.87291204 -9 39 C-8.3389147 35.20049924 -7.25006277 31.74748506 -5.9375 28.125 C-4.3229001 23.4258777 -3.78666469 19.90671216 -4 15 C-3.34 14.34 -2.68 13.68 -2 13 C-1.54337847 10.80708918 -1.179588 8.59414111 -0.875 6.375 C-0.70742188 5.18648438 -0.53984375 3.99796875 -0.3671875 2.7734375 C-0.24601562 1.85820312 -0.12484375 0.94296875 0 0 Z " fill="#A7B0B3" transform="translate(504,368)"/>
<path d="M0 0 C-0.66 0.99 -1.32 1.98 -2 3 C-4.56212284 3.19574173 -6.8643996 3.20808769 -9.4140625 3.07421875 C-10.14370209 3.04777786 -10.87334167 3.02133698 -11.62509155 2.99409485 C-13.95921572 2.90620882 -16.29180469 2.79710837 -18.625 2.6875 C-20.20567387 2.62425363 -21.78640361 2.56238715 -23.3671875 2.50195312 C-27.24562163 2.35064938 -31.12281059 2.18031236 -35 2 C-35 1.67 -35 1.34 -35 1 C-23.31514365 0.23467608 -11.70954775 -0.13339991 0 0 Z " fill="#333C42" transform="translate(416,244)"/>
<path d="M0 0 C-1.10702112 3.32106337 -1.90211465 3.99500501 -4.53125 6.16015625 C-9.09298484 10.03050316 -13.29724622 14.18415752 -17.5 18.4375 C-18.22703125 19.16904297 -18.9540625 19.90058594 -19.703125 20.65429688 C-21.47109499 22.43389824 -23.23666378 24.21580918 -25 26 C-25.66 25.67 -26.32 25.34 -27 25 C-23.48259521 21.43326807 -19.95875538 17.87307049 -16.42871094 14.31884766 C-15.22801105 13.10807151 -14.0291098 11.89550899 -12.83203125 10.68115234 C-11.11404252 8.93898662 -9.38975125 7.20328456 -7.6640625 5.46875 C-7.12754059 4.92190552 -6.59101868 4.37506104 -6.03823853 3.81164551 C-2.22774341 0 -2.22774341 0 0 0 Z " fill="#A1ABBB" transform="translate(435,325)"/>
<path d="M0 0 C0.33 0.66 0.66 1.32 1 2 C-0.36125 1.87625 -0.36125 1.87625 -1.75 1.75 C-5.08174556 1.6834609 -5.08174556 1.6834609 -7.25 3.9375 C-7.8275 4.618125 -8.405 5.29875 -9 6 C-9.99 6.495 -9.99 6.495 -11 7 C-11.40729228 9.32156597 -11.74438677 11.6568787 -12 14 C-12.66 13.34 -13.32 12.68 -14 12 C-13.80069497 6.71841658 -12.67791474 3.7893667 -9 0 C-5.88173308 -1.55913346 -3.32926126 -0.66585225 0 0 Z " fill="#7B8181" transform="translate(315,354)"/>
<path d="M0 0 C1.65 0 3.3 0 5 0 C4.21366078 1.14949588 3.42073742 2.29448989 2.625 3.4375 C2.18414062 4.07558594 1.74328125 4.71367187 1.2890625 5.37109375 C0 7 0 7 -2 8 C-2.99 9.485 -2.99 9.485 -4 11 C-4.99 11 -5.98 11 -7 11 C-6.67 9.35 -6.34 7.7 -6 6 C-5.34 6 -4.68 6 -4 6 C-3.67 5.01 -3.34 4.02 -3 3 C-2.34 3 -1.68 3 -1 3 C-0.67 2.01 -0.34 1.02 0 0 Z " fill="#0B1222" transform="translate(295,441)"/>
<path d="M0 0 C1.32 0.33 2.64 0.66 4 1 C3.67 1.99 3.34 2.98 3 4 C2.34 4 1.68 4 1 4 C0.73058594 4.7321875 0.46117187 5.464375 0.18359375 6.21875 C-0.96385859 8.91507365 -2.27415208 11.09597553 -3.9375 13.5 C-6.06359009 16.6137603 -8.10560631 19.73743309 -10 23 C-10.33 22.34 -10.66 21.68 -11 21 C-9.8203125 18.5390625 -9.8203125 18.5390625 -8.125 15.625 C-6.27123295 12.42617407 -4.67558292 9.65507683 -4 6 C-3.01 6 -2.02 6 -1 6 C-0.67 4.02 -0.34 2.04 0 0 Z " fill="#B0BAC3" transform="translate(293,288)"/>
<path d="M0 0 C0 7.26 0 14.52 0 22 C0.66 22 1.32 22 2 22 C2.33 23.98 2.66 25.96 3 28 C-1.49204972 23.91631844 -2.52277728 20.01300628 -3 14 C-2.79154149 10.31723293 -2.43054807 6.6629705 -2 3 C-3.98 3.99 -3.98 3.99 -6 5 C-1.125 0 -1.125 0 0 0 Z " fill="#B1BABF" transform="translate(528,233)"/>
<path d="M0 0 C0.66 0 1.32 0 2 0 C0.62988629 3.16496268 -0.83800368 4.95394563 -3.5 7.125 C-8.63137921 11.45460121 -13.2992191 16.21252437 -18 21 C-18 17.09538875 -16.66236719 16.66236719 -14 14 C-14 13.01 -14 12.02 -14 11 C-13.29875 10.79375 -12.5975 10.5875 -11.875 10.375 C-8.59061135 8.80420543 -6.74965753 6.90859326 -4.33203125 4.2421875 C-3 3 -3 3 -1 3 C-0.67 2.01 -0.34 1.02 0 0 Z " fill="#C5CCD0" transform="translate(364,372)"/>
<path d="M0 0 C1.98 0 3.96 0 6 0 C5.67 0.99 5.34 1.98 5 3 C4.34 3 3.68 3 3 3 C2.67 3.99 2.34 4.98 2 6 C1.34 6 0.68 6 0 6 C0 6.66 0 7.32 0 8 C-1.32 8.33 -2.64 8.66 -4 9 C-3.125 4.25 -3.125 4.25 -2 2 C-1.34 2 -0.68 2 0 2 C0 1.34 0 0.68 0 0 Z " fill="#626B7A" transform="translate(510,244)"/>
<path d="M0 0 C0.66 0.66 1.32 1.32 2 2 C-3.61 3.65 -9.22 5.3 -15 7 C-14.01 8.65 -13.02 10.3 -12 12 C-14.4375 11.25 -14.4375 11.25 -17 10 C-17.8125 7.875 -17.8125 7.875 -18 6 C-12.16287645 3.27600901 -6.23440168 1.58960332 0 0 Z " fill="#ABB2AF" transform="translate(504,204)"/>
<path d="M0 0 C0 3.59603466 -0.56690714 3.97668004 -2.95703125 6.50390625 C-3.88418945 7.49100586 -3.88418945 7.49100586 -4.83007812 8.49804688 C-5.48427734 9.17931641 -6.13847656 9.86058594 -6.8125 10.5625 C-7.77639648 11.59020508 -7.77639648 11.59020508 -8.75976562 12.63867188 C-11.42113611 15.4489688 -13.76324239 17.84216159 -17 20 C-15.32598022 16.04322598 -12.86850715 13.15535787 -10 10 C-9.34 10 -8.68 10 -8 10 C-7.79375 9.46375 -7.5875 8.9275 -7.375 8.375 C-5.42003056 4.9982346 -2.81776305 2.69525161 0 0 Z " fill="#909697" transform="translate(248,491)"/>
<path d="M0 0 C0.33 0 0.66 0 1 0 C1.33 1.98 1.66 3.96 2 6 C2.33 6 2.66 6 3 6 C4.28134207 12.65551466 5.33644956 19.25390382 6 26 C3.8074798 22.7112197 2.86898092 19.57865498 1.875 15.8125 C1.69614258 15.14210693 1.51728516 14.47171387 1.33300781 13.78100586 C0.12021254 9.01356541 -0.39860983 4.88297036 0 0 Z " fill="#879399" transform="translate(270,372)"/>
<path d="M0 0 C0.66 1.32 1.32 2.64 2 4 C0.25395451 5.4630657 -1.49699453 6.9202808 -3.25 8.375 C-4.22453125 9.18710937 -5.1990625 9.99921875 -6.203125 10.8359375 C-8.4552682 12.57851757 -10.40711386 13.876416 -13 15 C-12.06725891 13.87105124 -11.12859878 12.74699124 -10.1875 11.625 C-9.66542969 10.99851562 -9.14335937 10.37203125 -8.60546875 9.7265625 C-7 8 -7 8 -4 6 C-3.31246699 4.34183216 -2.64438717 2.67540664 -2 1 C-1.34 0.67 -0.68 0.34 0 0 Z " fill="#7A8591" transform="translate(319,264)"/>
<path d="M0 0 C-0.62895828 2.93513864 -1.58894081 5.35426402 -3 8 C-3.33 8.66 -3.66 9.32 -4 10 C-5.32 9.67 -6.64 9.34 -8 9 C-7.53918323 4.85264908 -4.48412936 0 0 0 Z " fill="#040E1D" transform="translate(232,513)"/>
<path d="M0 0 C1.65 0 3.3 0 5 0 C5.12375 0.5775 5.2475 1.155 5.375 1.75 C6.00648824 4.02335767 6.88858191 5.9253529 8 8 C8.99 7.67 9.98 7.34 11 7 C11 7.66 11 8.32 11 9 C10.01 9.33 9.02 9.66 8 10 C5.03 7.36 2.06 4.72 -1 2 C-0.67 1.34 -0.34 0.68 0 0 Z " fill="#090E13" transform="translate(489,210)"/>
<path d="M0 0 C0.99 0.99 1.98 1.98 3 3 C0.42215154 5.64752004 -1.91648098 7.94432065 -5 10 C-5 4.69520066 -3.4637943 3.81017373 0 0 Z " fill="#0D1935" transform="translate(234,512)"/>
<path d="M0 0 C1.093125 0.226875 2.18625 0.45375 3.3125 0.6875 C3.3125 2.0075 3.3125 3.3275 3.3125 4.6875 C-0.51822509 4.79103311 -3.21454133 4.42397933 -6.6875 2.6875 C-4.58035839 -0.41123767 -3.86755884 -0.32775922 0 0 Z " fill="#596266" transform="translate(388.6875,291.3125)"/>
<path d="M0 0 C4.99275057 1.27721526 7.57611908 3.17330957 11 7 C8.36 9.31 5.72 11.62 3 14 C3 11 3 11 4.375 9.3125 C6 8 6 8 8 8 C8 7.01 8 6.02 8 5 C6.8553125 4.5978125 6.8553125 4.5978125 5.6875 4.1875 C3.12619116 3.05575888 1.80307062 2.08776599 0 0 Z " fill="#BABFCE" transform="translate(471,235)"/>
<path d="M0 0 C0.66 0.33 1.32 0.66 2 1 C1.34 2.32 0.68 3.64 0 5 C-0.66 5 -1.32 5 -2 5 C-2 5.66 -2 6.32 -2 7 C-2.66 7 -3.32 7 -4 7 C-4.33 7.99 -4.66 8.98 -5 10 C-7.0625 11.6875 -7.0625 11.6875 -9 13 C-9 8.86218946 -7.28490393 7.79080004 -4.5 4.8125 C-3.6646875 3.91144531 -2.829375 3.01039063 -1.96875 2.08203125 C-0.99421875 1.05142578 -0.99421875 1.05142578 0 0 Z " fill="#06131C" transform="translate(247,494)"/>
<path d="M0 0 C0.33 0.99 0.66 1.98 1 3 C2.5778125 2.87625 2.5778125 2.87625 4.1875 2.75 C8.58864097 3.03859941 10.08772497 3.73472194 13 7 C13.3125 9.75 13.3125 9.75 13 12 C12.7525 11.401875 12.505 10.80375 12.25 10.1875 C10.78034996 7.61561243 9.56909841 6.46805623 7 5 C3.75193139 4.51278971 2.46145738 4.7006763 -0.3125 6.5 C-0.869375 6.995 -1.42625 7.49 -2 8 C-1.34 5.36 -0.68 2.72 0 0 Z " fill="#C9CECC" transform="translate(383,287)"/>
<path d="M0 0 C0.66 0.66 1.32 1.32 2 2 C-4.435 7.94 -4.435 7.94 -11 14 C-11 11 -11 11 -9.7578125 9.39453125 C-9.21898437 8.87246094 -8.68015625 8.35039062 -8.125 7.8125 C-7.59132813 7.28269531 -7.05765625 6.75289063 -6.5078125 6.20703125 C-5 5 -5 5 -3 5 C-2.67 4.01 -2.34 3.02 -2 2 C-1.34 2 -0.68 2 0 2 C0 1.34 0 0.68 0 0 Z " fill="#A1ABB2" transform="translate(381,355)"/>
<path d="M0 0 C2 2 2 2 2.01171875 4.09375 C1.90472656 4.8878125 1.79773438 5.681875 1.6875 6.5 C1.58824219 7.2940625 1.48898437 8.088125 1.38671875 8.90625 C1 11 1 11 0 13 C-0.66 12.67 -1.32 12.34 -2 12 C-2 9.36 -2 6.72 -2 4 C-1.34 4 -0.68 4 0 4 C0 2.68 0 1.36 0 0 Z " fill="#071626" transform="translate(546,216)"/>
<path d="M0 0 C0.66 0.33 1.32 0.66 2 1 C-1.67832017 5.52615993 -5.41086363 9.39424999 -10 13 C-10.66 12.67 -11.32 12.34 -12 12 C-8.04 8.04 -4.08 4.08 0 0 Z " fill="#98A2AA" transform="translate(418,319)"/>
<path d="M0 0 C0.66 0.33 1.32 0.66 2 1 C-1.222107 4.8665284 -4.14922412 5.88059018 -9 7 C-9.66 6.34 -10.32 5.68 -11 5 C-9.21289414 4.13633178 -7.4201535 3.28431406 -5.625 2.4375 C-4.62726563 1.96183594 -3.62953125 1.48617187 -2.6015625 0.99609375 C-1.74304688 0.66738281 -0.88453125 0.33867187 0 0 Z " fill="#212E34" transform="translate(332,223)"/>
<path d="M0 0 C-2.87695215 2.34418323 -5.57403636 3.62961455 -9 5 C-10.36365283 5.95824253 -11.70794169 6.94721175 -13 8 C-10.15054522 1.35127217 -7.28443449 -0.56034111 0 0 Z " fill="#C8D3DA" transform="translate(380,384)"/>
<path d="M0 0 C0.33 0 0.66 0 1 0 C1.20190089 6.35987804 0.6277833 11.85221129 -1 18 C-1.99 17.01 -2.98 16.02 -4 15 C-3.34 14.34 -2.68 13.68 -2 13 C-1.54337847 10.80708918 -1.179588 8.59414111 -0.875 6.375 C-0.70742188 5.18648438 -0.53984375 3.99796875 -0.3671875 2.7734375 C-0.24601562 1.85820312 -0.12484375 0.94296875 0 0 Z " fill="#C9D1D4" transform="translate(504,368)"/>
<path d="M0 0 C0.66 0 1.32 0 2 0 C2.25 2.8125 2.25 2.8125 2 6 C0 7.875 0 7.875 -2 9 C-2.6875 6.6875 -2.6875 6.6875 -3 4 C-1.5625 2.25 -1.5625 2.25 0 1 C0 0.67 0 0.34 0 0 Z " fill="#131C24" transform="translate(250,303)"/>
<path d="M0 0 C0 1.32 0 2.64 0 4 C-2.64697231 6.5489363 -5.57308643 7.76250343 -9 9 C-7.45665977 5.21180126 -4.44676575 0 0 0 Z " fill="#495655" transform="translate(488,423)"/>
<path d="M0 0 C0.66 0 1.32 0 2 0 C1.125 4.75 1.125 4.75 0 7 C-2.0625 7.625 -2.0625 7.625 -4 8 C-4 4.06830895 -2.60580385 2.83572772 0 0 Z " fill="#1A2A33" transform="translate(520,220)"/>
<path d="M0 0 C1.09969293 3.29907878 0.90192008 4.70906261 0.25 8.0625 C0.01023438 9.37927734 0.01023438 9.37927734 -0.234375 10.72265625 C-1 13 -1 13 -4 15 C-3.52396226 12.87429688 -3.04407402 10.74945573 -2.5625 8.625 C-2.29566406 7.44164062 -2.02882812 6.25828125 -1.75390625 5.0390625 C-1 2 -1 2 0 0 Z " fill="#545B5D" transform="translate(248,301)"/>
<path d="M0 0 C0.66 0 1.32 0 2 0 C0.44396229 3.81936528 -1.95604931 6.26044438 -5 9 C-5.66 9 -6.32 9 -7 9 C-6.67 8.01 -6.34 7.02 -6 6 C-5.34 6 -4.68 6 -4 6 C-3.67 5.01 -3.34 4.02 -3 3 C-2.34 3 -1.68 3 -1 3 C-0.67 2.01 -0.34 1.02 0 0 Z " fill="#939AA2" transform="translate(295,441)"/>
<path d="M0 0 C0.99 0.66 1.98 1.32 3 2 C-0.465 4.97 -0.465 4.97 -4 8 C-4 7.34 -4 6.68 -4 6 C-4.66 5.67 -5.32 5.34 -6 5 C-5.38125 4.731875 -4.7625 4.46375 -4.125 4.1875 C-1.7004767 3.04443152 -1.7004767 3.04443152 0 0 Z " fill="#18253F" transform="translate(466,289)"/>
<path d="M0 0 C0.66 0.33 1.32 0.66 2 1 C1.360625 1.226875 0.72125 1.45375 0.0625 1.6875 C-2.27432836 2.84016601 -2.27432836 2.84016601 -2.625 5.5625 C-2.810625 6.7690625 -2.810625 6.7690625 -3 8 C-3.99 8.495 -3.99 8.495 -5 9 C-5.66 8.34 -6.32 7.68 -7 7 C-4.78071806 4.09197539 -3.07030857 2.04687238 0 0 Z " fill="#6B7774" transform="translate(461,447)"/>
<path d="M0 0 C2 2 2 2 2 6 C0.125 6.625 0.125 6.625 -2 7 C-2.66 6.34 -3.32 5.68 -4 5 C-3.67 4.34 -3.34 3.68 -3 3 C-2.01 3 -1.02 3 0 3 C0 2.01 0 1.02 0 0 Z " fill="#3F4C60" transform="translate(436,318)"/>
<path d="M0 0 C0.66 0 1.32 0 2 0 C1.67 1.65 1.34 3.3 1 5 C-0.65 5.33 -2.3 5.66 -4 6 C-2.84826645 3.53199953 -1.95216435 1.95216435 0 0 Z " fill="#161B24" transform="translate(438,302)"/>
<path d="M0 0 C1.32 0.33 2.64 0.66 4 1 C3.67 1.99 3.34 2.98 3 4 C2.34 4 1.68 4 1 4 C0.67 4.99 0.34 5.98 0 7 C-0.99 7.33 -1.98 7.66 -3 8 C-3.33 7.34 -3.66 6.68 -4 6 C-3.01 6 -2.02 6 -1 6 C-0.67 4.02 -0.34 2.04 0 0 Z " fill="#66727B" transform="translate(293,288)"/>
<path d="M0 0 C0.99 0.33 1.98 0.66 3 1 C1.56967163 2.17544805 0.13046758 3.34010262 -1.3125 4.5 C-2.11300781 5.1496875 -2.91351563 5.799375 -3.73828125 6.46875 C-6 8 -6 8 -9 8 C-2.92207792 1.75324675 -2.92207792 1.75324675 0 0 Z " fill="#9CA2A4" transform="translate(298,240)"/>
<path d="M0 0 C2.125 0.375 2.125 0.375 4 1 C3.01 1 2.02 1 1 1 C0.34 2.98 -0.32 4.96 -1 7 C-1.99 7 -2.98 7 -4 7 C-2.92598892 4.08482708 -2.22189824 2.22189824 0 0 Z " fill="#32383F" transform="translate(204,359)"/>
<path d="M0 0 C0 1.32 0 2.64 0 4 C-0.66 4 -1.32 4 -2 4 C-2 3.01 -2 2.02 -2 1 C-4.64 1.66 -7.28 2.32 -10 3 C-9 1 -9 1 -6.6875 -0.1875 C-3.88010429 -1.03624754 -2.698065 -0.99928333 0 0 Z " fill="#C6CBCC" transform="translate(558,190)"/>
<path d="M0 0 C1.32 0.33 2.64 0.66 4 1 C1.69 3.31 -0.62 5.62 -3 8 C-3.33 7.01 -3.66 6.02 -4 5 C-3.01 4.67 -2.02 4.34 -1 4 C-0.26676204 1.98491642 -0.26676204 1.98491642 0 0 Z " fill="#172339" transform="translate(373,380)"/>
<path d="M0 0 C0.33 0 0.66 0 1 0 C1.33 2.31 1.66 4.62 2 7 C1.01 7.66 0.02 8.32 -1 9 C-1.09765625 2.84765625 -1.09765625 2.84765625 -1 1 C-0.67 0.67 -0.34 0.34 0 0 Z " fill="#DEEAE2" transform="translate(383,347)"/>
<path d="M0 0 C1.32 0.66 2.64 1.32 4 2 C3.67 3.32 3.34 4.64 3 6 C2.67 5.01 2.34 4.02 2 3 C0.68 3.33 -0.64 3.66 -2 4 C-1.34 2.68 -0.68 1.36 0 0 Z " fill="#0F181C" transform="translate(506,271)"/>
<path d="M0 0 C0.66 0 1.32 0 2 0 C0.49776416 4.20626034 -2.28550034 5.73900021 -6 8 C-5.1875 6.0625 -5.1875 6.0625 -4 4 C-3.01 3.67 -2.02 3.34 -1 3 C-0.67 2.01 -0.34 1.02 0 0 Z " fill="#90969F" transform="translate(364,372)"/>
<path d="M0 0 C-0.66 1.32 -1.32 2.64 -2 4 C-2.66 4 -3.32 4 -4 4 C-4.33 4.66 -4.66 5.32 -5 6 C-5.33 5.01 -5.66 4.02 -6 3 C-3.375 0 -3.375 0 0 0 Z " fill="#1F2733" transform="translate(286,254)"/>
<path d="M0 0 C1.98 0 3.96 0 6 0 C5.67 0.99 5.34 1.98 5 3 C2.69 3.33 0.38 3.66 -2 4 C-2 3.34 -2 2.68 -2 2 C-1.34 2 -0.68 2 0 2 C0 1.34 0 0.68 0 0 Z " fill="#546071" transform="translate(510,244)"/>
<path d="M0 0 C-1.32 1.32 -2.64 2.64 -4 4 C-5.32 3.01 -6.64 2.02 -8 1 C-2.25 -1.125 -2.25 -1.125 0 0 Z " fill="#1B232E" transform="translate(500,208)"/>
</svg>
